# xmcd
#
# Track frame offsets: 
#        150
#        11875
#        25051
#        37643
#        51191
#        64339
#        76838
#        87730
#        102021
#        115073
#        128724
#        140992
#        153449
#        165170
#        175326
#        188026
#        200849
#        211619
#        226732
#        239450
#
# Disc length: 3349 seconds
#
# Revision: 2
# Processed by: cddbd v1.4PL0 Copyright (c) Steve Scherf et al.
# Submitted via: ExactAudioCopy v0.95a4
#
DISCID=040d1314
DTITLE=J.B. Lenoir - Mojo Boogie - An Essential Colection
DYEAR=2002
DGENRE=Blues
TTITLE0=Let's Roll (take 2)
TTITLE1=People Are Meddling In Our Affairs
TTITLE2=(I Wanna) Play A Lttle While
TTITLE3=Louise
TTITLE4=How Much More
TTITLE5=The Mountain
TTITLE6=I Have Married
TTITLE7=I'll Die Tryin'
TTITLE8=The Mojo (take 4)
TTITLE9=How Can I Leave?
TTITLE10=I Want My Baby (take 4)
TTITLE11=Slow Down Woman (take 2]
TTITLE12=I Sing Um The Way I Feel
TTITLE13=I Feel So Good
TTITLE14=Let's Roll (take 1)
TTITLE15=The Mojo (take 1)
TTITLE16=I Want My Baby (take 1)
TTITLE17=Slow Down Woman (take 1)
TTITLE18=I Sing Um The Way I Feel (take 18)
TTITLE19=I Feel So Good (take 21)
EXTD=YEAR: 2002 ID3G: 0
EXTT0=
EXTT1=
EXTT2=
EXTT3=
EXTT4=
EXTT5=
EXTT6=
EXTT7=
EXTT8=
EXTT9=
EXTT10=
EXTT11=
EXTT12=
EXTT13=
EXTT14=
EXTT15=
EXTT16=
EXTT17=
EXTT18=
EXTT19=
PLAYORDER=
